<?xml version="1.0" encoding="UTF-8"?>
<!DOCTYPE svg PUBLIC "-//W3C//DTD SVG 1.1//EN" "http://www.w3.org/Graphics/SVG/1.1/DTD/svg11.dtd">
<!-- Creator: CorelDRAW 2019 (64-Bit) -->
<svg xmlns="http://www.w3.org/2000/svg" xml:space="preserve" width="129.456mm" height="34.6937mm" version="1.1" style="shape-rendering:geometricPrecision; text-rendering:geometricPrecision; image-rendering:optimizeQuality; fill-rule:evenodd; clip-rule:evenodd"
viewBox="0 0 12576.13 3370.35"
 xmlns:xlink="http://www.w3.org/1999/xlink"
 xmlns:xodm="http://www.corel.com/coreldraw/odm/2003"
 data-name="Layer 1">
 <defs>
  <style type="text/css">
   <![CDATA[
    .str1 {stroke:#2B2A29;stroke-width:68.55;stroke-miterlimit:22.9256}
    .str0 {stroke:#2B2A29;stroke-width:34.27;stroke-miterlimit:22.9256}
    .str2 {stroke:#F28B00;stroke-width:34.27;stroke-miterlimit:22.9256}
    .fil16 {fill:none}
    .fil3 {fill:#62BF33}
    .fil6 {fill:#FF640F}
    .fil15 {fill:white}
    .fil17 {fill:#2B2A29;fill-rule:nonzero}
    .fil18 {fill:#F28B00;fill-rule:nonzero}
    .fil12 {fill:black;fill-opacity:0.101961}
    .fil9 {fill:black;fill-opacity:0.149020}
    .fil13 {fill:#FFF200;fill-opacity:0.200000}
    .fil2 {fill:white;fill-opacity:0.200000}
    .fil10 {fill:black;fill-opacity:0.250980}
    .fil8 {fill:#FFF200;fill-opacity:0.250980}
    .fil11 {fill:black;fill-opacity:0.301961}
    .fil5 {fill:#FFF200;fill-opacity:0.301961}
    .fil14 {fill:black;fill-opacity:0.349020}
    .fil1 {fill:url(#id1)}
    .fil0 {fill:url(#id2)}
    .fil4 {fill:url(#id3)}
    .fil7 {fill:url(#id4)}
   ]]>
  </style>
     <clipPath id="id0">
      <path d="M-0 0l3091.66 0 0 3370.35 -3091.66 0 0 -3370.35z"/>
     </clipPath>
  <linearGradient id="id1" gradientUnits="userSpaceOnUse" x1="-244.04" y1="2848.66" x2="1758.91" y2="901.62">
   <stop offset="0" style="stop-opacity:1; stop-color:#0087CD"/>
   <stop offset="1" style="stop-opacity:1; stop-color:#00A77E"/>
  </linearGradient>
  <linearGradient id="id2" gradientUnits="userSpaceOnUse" x1="720.3" y1="2711.48" x2="2050.14" y2="1238.74">
   <stop offset="0" style="stop-opacity:1; stop-color:#003AFF"/>
   <stop offset="1" style="stop-opacity:1; stop-color:#08CEFF"/>
  </linearGradient>
  <linearGradient id="id3" gradientUnits="userSpaceOnUse" x1="-1052.38" y1="2196.55" x2="1650.37" y2="719.05">
   <stop offset="0" style="stop-opacity:1; stop-color:#FFE41F"/>
   <stop offset="1" style="stop-opacity:1; stop-color:#3FB737"/>
  </linearGradient>
  <linearGradient id="id4" gradientUnits="userSpaceOnUse" x1="-1344.62" y1="1696.9" x2="908.02" y2="-28.36">
   <stop offset="0" style="stop-opacity:1; stop-color:#FFF82A"/>
   <stop offset="1" style="stop-opacity:1; stop-color:#FF2404"/>
  </linearGradient>
 </defs>
 <g id="Layer_x0020_1">
  <metadata id="CorelCorpID_0Corel-Layer"/>
  <g id="_2994439878064">
   <g>
    <g>
    </g>
    <g style="clip-path:url(#id0)">
     <g>
      <g>
       <path class="fil0" d="M3065.28 1738.59c20.36,56.95 30.9,117.18 30.9,177.74 0,153.06 -66.66,298.67 -182.51,398.63 36.54,89.91 55.37,186.28 55.37,283.38 0,76.43 -11.67,152.5 -34.55,225.35 -124.21,399.1 -548.52,621.82 -947.62,497.33 -41.27,-12.83 -81.66,-29.38 -120.2,-49.06 -1.38,0.44 -2.78,0.8 -4.19,1.02 141.7,-157.12 247.38,-356.69 292.63,-610.5 99.56,-558.33 515.97,-810.86 910.15,-923.89z"/>
       <path class="fil1" d="M2928.76 1530.75c61.33,57.42 108.15,128.83 136.48,207.85 -394.17,112.87 -810.58,365.41 -910.14,923.89 -45.26,253.81 -150.95,453.39 -292.64,610.51l-0.31 0.28c-103.99,31.22 -212.27,47.16 -320.97,47.16 -238.64,0 -471.15,-76.55 -663.08,-218.36 324.81,-186.76 638,-484.36 854.4,-956.58 221.13,-482.53 732.48,-610.02 1196.27,-614.77z"/>
       <path class="fil2" d="M3065.28 1738.59c-1.63,-4.53 -3.54,-8.97 -5.28,-13.46 -518.72,148.92 -836.53,472.16 -919.04,934.83 -41.72,233.89 -139.02,436.89 -289.17,603.38l-15.62 17.24c8.68,-2.41 17.37,-4.75 25.96,-7.34l0.31 -0.24c141.7,-157.12 247.38,-356.7 292.64,-610.51 99.62,-558.33 516.03,-810.86 910.21,-923.89z"/>
       <path class="fil3" d="M2312.84 1329.25l554.67 -665.04c17.27,-20.72 26.76,-46.89 26.76,-73.88 0,-63.69 -51.65,-115.34 -115.34,-115.34 -34.2,0 -66.67,15.19 -88.57,41.45l-565.66 678.26c67,38.3 130.24,83.56 188.14,134.57l-0.01 -0.02z"/>
       <path class="fil4" d="M2724.66 1411.63c76.2,23.56 146.08,64.41 204.12,119.13 -463.78,4.75 -975.14,132.24 -1196.16,614.73 -216.4,472.22 -529.53,769.82 -854.4,956.59 -41.63,-31.01 -81.39,-65.22 -118.24,-101.65 -36.64,7.87 -74.17,11.93 -111.63,11.93 -271.62,0 -499.08,-206.18 -525.57,-476.45 279.8,-72.52 557.26,-225.74 760.26,-522.56 304.25,-445.24 693.74,-716.92 1190.88,-781.72 100.15,54.32 191.22,124.17 269.93,206.39 70.02,-33 146.72,-50.21 224.19,-50.21 53.05,0 105.99,8.09 156.6,23.83l0 0.01z"/>
       <path class="fil5" d="M2912.27 1516.85c-598.11,9.97 -1010.58,224.87 -1192.86,622.63 -190.85,416.5 -476.34,736.12 -848.49,950.06l-4.87 2.82c4.09,3.12 7.93,6.59 12.08,9.71 324.81,-186.76 638,-484.37 854.4,-956.59 221.08,-482.5 732.43,-609.98 1196.16,-614.73 -5.16,-4.91 -11,-9.18 -16.43,-13.9z"/>
       <path class="fil6" d="M1292.29 1064.59c75.55,-16.3 153.14,-25.37 230.44,-26.37l-209.25 -933.32c-11.74,-52.66 -58.53,-90.11 -112.49,-90.11 -63.69,0 -115.34,51.64 -115.34,115.33 0,8.5 0.95,16.97 2.8,25.25l203.84 909.22z"/>
       <path class="fil7" d="M1871.86 1146.01c69.87,21.61 137.89,50.52 201.94,85.66 -497.14,64.81 -886.62,336.48 -1190.88,781.71 -203,296.7 -480.46,450.05 -760.26,522.57 -1.76,-17.31 -2.66,-34.83 -2.66,-52.27 0,-114.35 37.39,-225.69 106.34,-316.89 -144.36,-98.44 -230.83,-262.02 -230.83,-436.78 0,-291.88 236.71,-528.59 528.58,-528.59 124.36,0 244.91,43.95 340.1,123.9 277.22,-212.01 649.12,-291.03 1007.69,-179.31z"/>
       <path class="fil8" d="M882.98 2013.37c304.26,-445.24 693.74,-716.92 1190.88,-781.72 -7.09,-3.91 -14.4,-7.43 -21.61,-11.18 -480.14,68.12 -866.8,324.81 -1181.14,784.78 -177.08,258.82 -429.11,432.37 -749.14,515.91 0.34,4.9 0.25,9.86 0.75,14.77 279.8,-72.52 557.26,-225.74 760.26,-522.56z"/>
       <path class="fil9" d="M3065.28 1738.59c-394.18,112.87 -810.59,365.41 -910.15,923.89 -45.25,253.81 -150.94,453.39 -292.63,610.51 1.41,-0.23 2.81,-0.59 4.15,-1.07 38.62,19.73 78.93,36.25 120.28,49.08 8.18,2.53 16.33,4.71 24.51,6.97 363.13,-253.88 363.13,-802.9 498.86,-1054.71 115.84,-214.91 436.67,-400.48 572.71,-472 -4.6,-21.2 -10.6,-42.19 -17.71,-62.67l-0.02 0.01z"/>
       <path class="fil10" d="M2336.64 2318.69c111.34,-206.54 373.5,-461.05 733.94,-563.42 -1.75,-5.56 -3.31,-11.18 -5.28,-16.68 -394.17,112.87 -810.59,365.41 -910.15,923.89 -45.25,253.82 -150.94,453.39 -292.63,610.51 1.41,-0.23 2.81,-0.59 4.15,-1.07 20.02,10.28 40.61,19.58 62,28.1 277.02,-246.31 284.02,-751.36 407.97,-981.34z"/>
       <path class="fil9" d="M1839.51 2200.57c270.43,-536.65 815.32,-608.26 1146.91,-605.89 -17.46,-22.8 -36.9,-44.36 -57.8,-63.98 -463.78,4.74 -975.14,132.24 -1196.17,614.72 -216.4,472.23 -529.52,769.82 -854.39,956.59 46.46,34.41 95.82,65.16 147.07,91.86 415.93,-178.79 573.21,-514.62 814.38,-993.3z"/>
       <path class="fil11" d="M1768.95 2185.8c220.15,-480.4 721.26,-617.1 1185.41,-628.78 -8.27,-8.97 -16.67,-17.78 -25.61,-26.11 -463.78,4.75 -975.13,132.24 -1196.16,614.73 -216.4,472.22 -529.52,769.82 -854.4,956.59 18.33,13.58 37.48,26.2 56.81,38.69 317.84,-192.6 621.44,-491.58 833.94,-955.12z"/>
       <path class="fil12" d="M1012.49 2205.22c319.94,-468.2 724.79,-763.52 1235.36,-855.21 -53.89,-44.78 -112.48,-84.68 -173.99,-118.31 -497.14,64.81 -886.63,336.48 -1190.88,781.71 -203.01,296.7 -480.46,450.05 -760.26,522.57 8.61,85.25 38,167.39 85.32,238.92 297.1,-84.72 588.62,-254.12 804.46,-569.68z"/>
       <path class="fil12" d="M2073.74 1231.65c-497.14,64.81 -886.62,336.48 -1190.88,781.72 -203,296.69 -480.46,450.04 -760.26,522.56 4.56,45.08 15,89.54 30.96,131.9 438.98,-62.12 697.17,-508.7 1018.14,-879.51 293.98,-339.42 781.94,-477.05 965.67,-518.44 -20.46,-13.43 -41.57,-26.33 -63.62,-38.23z"/>
       <path class="fil13" d="M864.27 1325.34c-53.54,-45.11 -115.56,-79.1 -182.43,-99.79 -272.12,-84.86 -560.13,61.49 -654.79,327.71 -85.21,688.11 565.59,538.55 913.98,71.83 289.33,-387.64 703.96,-486.71 1132.86,-393.52 -64.12,-35.12 -132.14,-64.03 -202.02,-85.64 -358.57,-111.64 -730.47,-32.62 -1007.59,179.41z"/>
       <path class="fil2" d="M681.82 1225.58c-50.58,-15.78 -103.34,-23.85 -156.37,-23.85 -44.63,0 -89.2,5.77 -132.35,16.97 -202.41,92.51 -206.53,318.97 -64.37,373.15 162.62,62.03 535.56,-266.52 535.56,-266.52 -53.56,-45.1 -115.57,-79.09 -182.45,-99.78l-0.02 0.03z"/>
       <path class="fil14" d="M710.21 2224.12c19.05,244.38 28.11,504.35 285.8,585.28 324.81,102 916.08,292.23 1204.41,56.71 288.33,-235.51 306.07,-974.02 92.16,-1175.74 -213.91,-201.72 -803.02,-171.99 -1156.97,-112.62 -321.78,54 -461.32,185.62 -425.4,646.37z"/>
       <path class="fil15" d="M661.02 2156.13c19.02,244.39 28.1,504.32 285.76,585.25 324.81,102.03 916.11,292.23 1204.44,56.74 288.33,-235.48 306.07,-974.04 92.13,-1175.77 -213.93,-201.72 -802.99,-171.99 -1156.93,-112.43 -321.78,53.81 -461.32,185.54 -425.4,646.21z"/>
       <path class="fil14" d="M2737.27 2024.63c-29.42,-37.63 -83.76,-44.29 -121.39,-14.86 -37.62,29.42 -44.28,83.77 -14.86,121.39 29.43,37.62 83.77,44.28 121.4,14.86 37.62,-29.43 44.28,-83.77 14.85,-121.39z"/>
       <path class="fil14" d="M2710.13 2300.14c-30.51,-36.75 -85.03,-41.81 -121.78,-11.3 -36.75,30.5 -41.8,85.03 -11.3,121.77 30.51,36.75 85.03,41.81 121.78,11.3 36.75,-30.5 41.8,-85.03 11.3,-121.77z"/>
       <circle class="fil15" transform="matrix(0.0241626 -0.133223 0.133223 0.0241626 2663.19 2065.32)" r="638.72"/>
       <circle class="fil15" transform="matrix(0.131765 -0.0311479 0.0311479 0.131765 2637.28 2342.17)" r="638.72"/>
      </g>
     </g>
    </g>
    <polygon class="fil16" points="-0,0 3091.66,0 3091.66,3370.35 -0,3370.35 "/>
    <path class="fil17 str0" d="M1261.24 1816.33l-35.13 0 0 281.79 120.7 0 0 -32.15 -85.58 0 0 -249.65zm142.77 0l-35.14 0 0 281.79 35.14 0 0 -281.79zm61.66 0l-38.49 0 122.58 296.73 122.21 -296.73 -38.49 0 -83.72 208.53 -84.09 -208.53zm230.22 281.79l151.36 0 0 -32.15 -116.23 0 0 -106.51 112.85 0 0 -32.15 -112.85 0 0 -78.85 116.23 0 0 -32.14 -151.36 0 0 281.79z"/>
    <path class="fil17" d="M1019.49 2288.56c-9.52,-16.95 -25.54,-26.46 -45.04,-26.46 -26.47,0 -51.55,16.94 -51.55,45.27 0,24.37 18.11,35.75 38.08,44.34l12.07 5.11c15.1,6.27 30.18,14.4 30.18,33.19 0,18.34 -13.46,34.13 -32.27,34.13 -18.81,0 -34.13,-13.93 -33.89,-33.19l-22.05 4.64c3.71,28.09 25.76,48.98 54.09,48.98 31.34,0 55.95,-22.75 55.95,-54.56 0,-29.25 -18.56,-42.95 -43.41,-52.7l-12.53 -4.87c-10.91,-4.19 -24.37,-11.38 -24.37,-25.07 0,-15.33 15.32,-24.84 29.25,-24.84 13.23,0 21.59,5.57 28.08,16.48l17.42 -10.44zm76.61 -2.79l41.56 0 0 -19.96 -104.94 0 0 19.96 41.56 0 0 155.08 21.82 0 0 -155.08zm112.36 78.93c25.31,-3.01 42.03,-23.91 42.03,-48.98 0,-16.72 -8.36,-33.19 -22.98,-41.79 -13.93,-7.89 -30.65,-8.12 -46.2,-8.12l-26.46 0 0 175.05 21.82 0 0 -74.05 9.05 0 51.54 74.05 26.47 0 -55.26 -76.15zm-31.81 -79.4l5.81 0c21.59,0 47.59,3.95 47.59,31.35 0,27.85 -24.15,32.03 -46.44,32.03l-6.97 0 0 -63.38zm104.25 155.55l94.02 0 0 -19.96 -72.2 0 0 -66.17 70.11 0 0 -19.96 -70.11 0 0 -48.99 72.2 0 0 -19.96 -94.02 0 0 175.05zm226.12 -43.88l19.97 43.88 23.44 0 -83.57 -182.48 -83.57 182.48 23.45 0 19.96 -43.88 80.32 0zm-9.05 -19.96l-62.21 0 31.11 -70.81 31.11 70.81zm149.28 67.56l52.46 -119.32 0.47 0 20.43 115.61 22.52 0 -35.75 -182.48 -60.12 137.91 -60.13 -137.91 -35.75 182.48 22.52 0 20.43 -115.61 0.47 0 52.47 119.32zm136.5 -178.76l-21.82 0 0 175.05 21.82 0 0 -175.05zm30.65 175.05l21.82 0 0 -130.48 131.4 137.68 0 -182.25 -21.82 0 0 129.31 -131.4 -137.67 0 183.4zm274.41 -88.22l0 19.96 45.27 0c-0.92,28.55 -30.18,52 -57.35,52 -37.84,0 -68.02,-34.83 -68.02,-71.5 0,-39.24 30.65,-71.04 69.89,-71.04 21.35,0 42.48,11.38 55.01,28.55l15.33 -14.62c-17.19,-21.6 -44.11,-33.89 -71.28,-33.89 -50.38,0 -90.77,41.32 -90.77,91.7 0,48.52 39.47,90.77 88.45,90.77 48.98,0 82.88,-36.91 82.88,-84.96l0 -6.97 -69.42 0z"/>
   </g>
   <path class="fil17 str1" d="M3652.45 2693.21l-119.91 0 0 -1123.18 119.91 0 0 1123.18zm942.57 0l-107.76 0 0 -514.54c0,-72.85 -23.53,-131.29 -70.58,-175.31 -47.06,-44.02 -106.5,-66.02 -178.35,-66.02 -75.89,0 -138.88,22 -188.97,66.02 -50.09,44.02 -75.13,102.46 -75.13,175.31l0 514.54 -107.76 0 0 -836.32 107.76 0 0 107.76c33.4,-39.46 75.13,-69.82 125.22,-91.06 50.09,-21.26 102.97,-31.87 158.61,-31.87 98.16,0 178.86,30.61 242.1,91.82 63.24,61.22 94.86,142.93 94.86,245.13l0 514.54zm645.07 -204.4c0,63.49 -27.82,117.62 -83.48,161.89 -51.6,41.49 -109.78,62.23 -174.55,62.23 -74.88,0 -138.12,-25.55 -189.73,-76.9 -51.6,-51.35 -77.41,-115.86 -77.41,-193.27l107.76 0c12.14,44.02 33.14,79.44 62.99,106 29.85,26.56 62.99,39.71 99.42,39.71 36.43,0 68.05,-12.9 94.86,-38.7 26.81,-25.55 40.22,-56.16 40.22,-91.57 0,-34.41 -11.64,-63.75 -34.9,-88.54 -23.28,-24.79 -56.67,-40.73 -100.18,-47.82 -69.82,-13.15 -123.96,-36.43 -162.41,-69.57 -49.58,-42.5 -74.37,-102.7 -74.37,-180.37 0,-69.57 21.51,-124.96 64.5,-165.94 43.01,-40.72 97.4,-61.22 163.17,-61.22 68.81,0 125.98,21.76 171.52,65.27 45.53,43.51 68.29,101.19 68.29,173.03l-107.76 0c0,-43.51 -12.4,-77.15 -36.93,-100.93 -24.79,-23.78 -55.14,-35.67 -91.32,-35.67 -35.17,0 -62.99,10.38 -83.73,31.12 -20.5,20.75 -30.86,48.57 -30.86,83.99 0,27.32 7.59,51.6 22.76,72.6 20.25,27.33 51.61,48.57 94.11,63.75 99.17,33.4 166.96,71.09 203.39,113.58 36.42,42.5 54.63,101.44 54.63,177.34zm526.69 -512.02l-191.25 0 0 716.41 -107.76 0 0 -716.41 -166.96 0 0 -107.76 166.96 0 0 -286.86 107.76 0 0 286.86 191.25 0 0 107.76zm956.23 716.41l-94.11 0 0 -142.68c-32.38,52.12 -77.66,92.08 -135.33,120.16 -57.69,28.08 -120.17,42.25 -186.95,42.25 -127.75,0 -235.77,-40.22 -324.06,-120.92 -88.29,-80.45 -132.3,-182.14 -132.3,-304.82 0,-127.76 44.78,-234.26 134.59,-319.25 89.8,-85.26 198.07,-127.75 324.81,-127.75 66.79,0 127.76,13.66 182.39,40.98 54.64,27.32 100.43,66.79 136.86,118.39l0 -142.68 94.11 0 0 836.32zm-94.11 -413.61c0,-91.32 -31.87,-168.99 -95.62,-232.73 -63.75,-64 -141.16,-95.87 -232.23,-95.87 -91.06,0 -168.48,31.87 -232.23,95.87 -63.75,63.75 -95.62,141.42 -95.62,232.73 0,91.33 31.87,168.99 95.62,232.73 63.75,64 141.16,95.88 232.23,95.88 91.06,0 168.48,-31.88 232.23,-95.88 63.75,-63.75 95.62,-141.41 95.62,-232.73z"/>
   <path class="fil18 str2" d="M7493.97 1789.62l39.99 0c74.6,0 136.72,34.32 186.07,102.97 8.79,13.89 15.6,40.56 19.86,79.98 0,168.77 -176.15,321.66 -528.43,458.66l-56.45 16.45 0 20.14c0,85.1 30.92,144.95 93.04,179.26 28.08,11.06 53.61,16.74 76.3,16.74l46.52 0c155.72,0 353.14,-154.02 591.68,-462.06l142.96 -212.73 3.4 0c6.53,0 11.06,12.19 13.33,36.59 0,76.02 -97.57,224.37 -292.43,445.33 -186.93,184.08 -365.06,275.98 -535.24,275.98l-40 0c-140.69,0 -236,-79.71 -285.91,-239.4l-6.53 -73.18 0 -43.11c0,-146.64 79.71,-301.79 239.4,-465.46 100.13,-90.76 197.7,-136.15 292.44,-136.15zm-338.96 584.87l3.13 3.41c148.06,-40.28 260.94,-109.2 339.23,-205.93 48.79,-71.47 73.18,-133.6 73.18,-186.36l0 -43.11c-5.11,-53.04 -27.23,-79.7 -66.65,-79.7l-29.78 0c-108.64,0 -203.94,123.95 -285.91,372.14 -13.34,38.29 -24.39,84.81 -33.19,139.55zm900 -555.08l3.41 0c13.05,7.94 19.86,17.87 19.86,30.07l0 9.93c0,42.26 -19.01,201.67 -56.45,478.78l-3.4 83.11c0,113.46 23.26,183.24 69.77,209.33l23.27 3.4 23.26 0c76.58,0 149.48,-70.91 219.54,-212.73l0 -3.4c-9.07,-45.95 -13.33,-87.08 -13.33,-123.1 0,-147.78 87.35,-296.41 262.36,-445.32l23.27 -16.74 13.33 0c9.65,0 16.17,16.74 20.14,49.92 0,156.29 -74.32,340.09 -222.66,551.68 17.58,64.39 49.63,96.44 96.16,96.44l3.4 0c77.72,0 206.21,-135.01 385.48,-405.32l79.99 -106.37 6.52 0c6.81,0.85 9.93,9.93 9.93,26.38l0 6.81c-11.06,68.64 -101.83,203.94 -272.58,405.32 -90.76,95.31 -165.08,142.96 -222.66,142.96 -54.18,0 -97.57,-32.05 -129.62,-96.16l-6.53 0c-120.83,161.68 -233.72,242.52 -339.23,242.52l-19.86 0c-90.77,0 -147.22,-73.18 -169.62,-219.26 -4.25,-21.84 -6.53,-51.62 -6.53,-89.91l0 -33.19c0,-99.84 15.6,-273.71 46.51,-521.9 0,-20.99 52.2,-41.99 156.29,-63.25zm1225.63 -29.78l39.99 0c74.6,0 136.72,34.32 186.07,102.97 8.79,13.89 15.6,40.56 19.86,79.98 0,168.77 -176.15,321.66 -528.43,458.66l-56.45 16.45 0 20.14c0,85.1 30.92,144.95 93.04,179.26 28.08,11.06 53.61,16.74 76.3,16.74l46.52 0c155.72,0 353.14,-154.02 591.68,-462.06l142.96 -212.73 3.4 0c6.53,0 11.06,12.19 13.33,36.59 0,76.02 -97.57,224.37 -292.43,445.33 -186.93,184.08 -365.06,275.98 -535.24,275.98l-40 0c-140.69,0 -236,-79.71 -285.91,-239.4l-6.53 -73.18 0 -43.11c0,-146.64 79.71,-301.79 239.4,-465.46 100.13,-90.76 197.7,-136.15 292.44,-136.15zm-338.96 584.87l3.13 3.41c148.06,-40.28 260.94,-109.2 339.23,-205.93 48.79,-71.47 73.18,-133.6 73.18,-186.36l0 -43.11c-5.11,-53.04 -27.23,-79.7 -66.65,-79.7l-29.78 0c-108.64,0 -203.94,123.95 -285.91,372.14 -13.34,38.29 -24.39,84.81 -33.19,139.55zm1534.8 -565.01l19.86 0c62.68,0 108.07,38.86 136.43,116.29l3.4 40c0,59.28 -44.53,212.16 -133.03,458.65 -28.93,85.95 -43.11,139.27 -43.11,159.7l0 13.33c0,19.86 13.05,29.78 39.71,29.78l3.4 0c63.82,0 204.51,-144.1 422.06,-431.99l136.43 -182.96 3.13 0c6.24,0 10.49,12.2 13.33,36.59 -7.66,64.38 -129.62,233.71 -365.62,508.57 -120.83,126.22 -212.73,189.47 -275.7,189.47l-20.14 0c-64.67,0 -111.18,-41.13 -139.55,-123.1l-3.41 -33.19 0 -3.4c0,-50.78 59.85,-256.98 179.55,-618.06l0 -9.93c0,-20.14 -13.33,-30.07 -39.99,-30.07 -85.66,4.54 -243.09,181.82 -471.98,531.84 -32.62,53.89 -72.33,133.6 -119.42,239.4 -20.14,26.66 -74.31,39.99 -163.09,39.99 -8.79,-3.4 -15.32,-9.07 -19.86,-16.73l0 -26.67c135.3,-456.95 218.4,-727.26 249.33,-810.94 24.96,-37.72 57.01,-56.44 96.44,-56.44l69.78 -16.74c17.58,2.84 26.66,11.63 26.66,26.67 -113.18,356.25 -169.62,538.92 -169.62,548.28 260.38,-385.48 448.73,-578.35 565.02,-578.35zm780.31 -358.81l3.4 0c15.32,0 23.26,8.79 23.26,26.38l-106.37 392.28 112.89 0c15.6,0 23.26,5.67 23.26,16.74 -4.82,39.71 -12.76,59.85 -23.26,59.85l-129.62 0c-6.53,0 -30.92,78.57 -73.18,235.99 -70.92,219.26 -106.37,351.15 -106.37,395.4l0 33.47c5.67,26.38 19.01,39.71 40,39.71l29.78 0c92.18,0 261.52,-184.94 508.57,-555.09l63.25 -93.04 3.41 0c6.52,2.27 9.93,8.79 9.93,19.86l0 20.14c0,76.3 -123.1,253.58 -369.02,531.84 -117.43,115.16 -208.19,172.74 -272.58,172.74l-33.19 0c-75.45,0 -123.96,-35.46 -146.36,-106.37 -4.25,-9.93 -6.53,-24.39 -6.53,-43.11l0 -20.14c0,-76.87 53.32,-286.2 159.69,-628.27l-3.4 -3.12 -129.62 0 -9.93 -9.93 0 -3.4c0,-42.27 15.31,-63.26 46.51,-63.26l119.69 0c5.96,0 25.81,-59.84 59.57,-179.55 41.7,-134.44 69.49,-204.22 83.11,-209.33 13.33,-8.79 54.46,-18.72 123.1,-29.78zm677.34 352.28l40 0c87.36,0 140.69,30.92 159.41,93.04l3.4 26.67 0 3.12c0,67.23 -52.19,112.6 -156.28,136.43l-29.78 3.4 -10.21 -13.33 0 -6.81c31.19,-30.91 46.51,-61.83 46.51,-93.04l0 -13.33c-5.39,-41.98 -32.05,-62.97 -79.7,-62.97l-39.71 0c-68.36,0 -117.99,29.78 -149.76,89.64l-3.41 19.85 0 16.74c0,52.76 41.13,103.53 123.1,152.89 85.37,67.51 140.69,114.02 166.22,139.55 40,52.19 59.84,100.97 59.84,146.36 0,42.55 -20.98,90.2 -63.25,142.96l0 6.52c117.43,-19.86 282.51,-200.54 495.25,-541.75 27.79,-46.52 43.4,-69.78 46.51,-69.78l3.4 0c6.25,0 10.5,11.06 13.34,33.19 0,77.15 -95.31,226.63 -285.92,448.73 -101.83,102.39 -178.41,162.24 -229.18,179.55 -37.73,22.12 -96.45,40 -176.15,53.04 -85.95,35.46 -159.13,53.32 -219.54,53.32l-46.52 0c-96.44,0 -168.48,-28.93 -216.13,-86.51 -13.33,-22.69 -19.86,-42.55 -19.86,-59.85 0,-49.07 29.78,-85.66 89.63,-109.48 17.31,-9.08 40.57,-13.34 70.06,-13.34 48.51,4.83 72.9,12.76 72.9,23.27l0 3.4c-30.91,29.21 -46.51,54.74 -46.51,76.3l0 26.67c0,48.79 42.26,73.18 126.5,73.18l9.93 0c95.87,0 163.38,-34.32 202.8,-103.25l9.93 -49.64 0 -10.21c0,-60.13 -35.46,-114.59 -106.37,-162.81l-179.55 -146.08c-44.25,-41.7 -66.38,-85.95 -66.38,-133.03 0,-126.79 102.97,-215.57 308.9,-266.05l76.58 -6.53z"/>
  </g>
 </g>
</svg>
